<?xml version="1.0" encoding="utf-8"?>
<!-- Generator: Adobe Illustrator 22.1.0, SVG Export Plug-In . SVG Version: 6.00 Build 0)  -->
<svg version="1.1" id="Layer_1" xmlns="http://www.w3.org/2000/svg" xmlns:xlink="http://www.w3.org/1999/xlink" x="0px" y="0px"
	 viewBox="0 0 92.1 92.1" style="enable-background:new 0 0 92.1 92.1;" xml:space="preserve">
<style type="text/css">
	.st0{fill:#009CDE;}
	.st1{font-family:'Ubuntu-Bold';}
	.st2{font-size:20px;}
</style>
<title>Risorsa 41</title>
<g id="Livello_2">
	<g id="Livello_1-2">
		<path class="st0" d="M47.5,18.7C41.3,12.5,35.4,6.7,33.7,0C31.9,6.7,26,12.5,19.8,18.7C10.5,28,0,38.5,0,54.3
			c0,18.6,15.1,33.7,33.6,33.7c18.6,0,33.7-15.1,33.7-33.6c0,0,0,0,0,0C67.3,38.5,56.8,28,47.5,18.7z M17.3,57.3
			c-1,1.3-1.9,2.7-2.6,4.2c-0.1,0.2-0.3,0.4-0.6,0.5L14,62l0,0c-0.1,0-0.1,0-0.2,0l0,0c-0.8-0.1-1.6-1.5-1.6-1.5l0,0
			c-0.2-0.3-0.4-0.7-0.6-1.1l-0.1-0.3c-1.9-4.5-0.3-10.8-0.3-10.8l0,0c0.8-3.1,2.2-6,4-8.6c1.1-1.6,2.3-3.2,3.6-4.7l1.6,1.5l7.5,7.7
			c0.3,0.3,0.3,0.8,0,1.1L20,54.1l0,0L17.3,57.3z M34,79.4c-6.4-0.1-11.6-5.3-11.5-11.8c0-2.8,1.1-5.5,3-7.6
			c2.5-2.9,5.5-5.8,8.7-9.5c3.9,4.1,6.3,7,8.9,10c0.2,0.2,0.4,0.5,0.5,0.8c3.7,5.2,2.4,12.4-2.8,16.1C38.7,78.7,36.4,79.4,34,79.4z
			 M55.9,60.9L55.9,60.9c-0.2,0.5-0.6,0.8-1.1,0.9h-0.2c-0.5-0.1-0.8-0.4-1.1-0.8l0,0c-2-3-4.3-5.9-6.8-8.5l-3.1-3.3L33.4,38.6
			c-1.7-1.7-4.8-4.7-6.1-6.3l-0.2-0.2c-0.4-0.5-0.6-1-0.8-1.6c0-0.1,0-0.2,0-0.3c-0.2-1,0-2.1,0.4-3.1c0.3-0.6,0.7-1.2,1.2-1.6
			c2-2,4-4,5.8-6.1c2.1,2.3,4.3,4.5,6.5,6.7l0,0c4.3,4.4,8.8,8.9,12,13.7s4.7,9.5,4.7,14.5C56.9,56.5,56.6,58.7,55.9,60.9z"/>
		<text transform="matrix(1 0 0 1 64.43 87.72)" class="st0 st1 st2">9.0</text>
	</g>
</g>
</svg>
